<?xml version="1.0" encoding="UTF-8"?>
<!DOCTYPE svg PUBLIC "-//W3C//DTD SVG 1.1//EN" "http://www.w3.org/Graphics/SVG/1.1/DTD/svg11.dtd">
<svg xmlns="http://www.w3.org/2000/svg" version="1.1" width="64px" height="64px" style="shape-rendering:geometricPrecision; text-rendering:geometricPrecision; image-rendering:optimizeQuality; fill-rule:evenodd; clip-rule:evenodd" xmlns:xlink="http://www.w3.org/1999/xlink">
<g><path style="opacity:0.701" fill="#100706" d="M 45.5,-0.5 C 47.8333,-0.5 50.1667,-0.5 52.5,-0.5C 50.118,5.26565 47.4513,10.9323 44.5,16.5C 45.1667,17.8333 46.1667,18.8333 47.5,19.5C 52.8563,13.1473 58.1896,6.81397 63.5,0.5C 63.5,4.16667 63.5,7.83333 63.5,11.5C 59.1466,14.8542 55.4799,18.8542 52.5,23.5C 55.9893,26.08 59.6559,28.4133 63.5,30.5C 63.5,34.1667 63.5,37.8333 63.5,41.5C 62.802,43.6669 61.4687,45.5002 59.5,47C 55.503,49.2501 51.1696,50.4167 46.5,50.5C 34.6381,48.1483 22.6381,46.9816 10.5,47C 7.57624,42.9051 3.90957,39.7384 -0.5,37.5C -0.5,35.1667 -0.5,32.8333 -0.5,30.5C 1.96904,27.8562 4.30238,25.0228 6.5,22C 15.819,13.1389 26.6523,10.6389 39,14.5C 41.1814,9.47409 43.3481,4.47409 45.5,-0.5 Z"/></g>
<g><path style="opacity:1" fill="#8b1915" d="M 27.5,15.5 C 29.8333,14.1667 32.1667,14.1667 34.5,15.5C 32.5853,15.2155 30.9187,15.5489 29.5,16.5C 28.8333,16.1667 28.1667,15.8333 27.5,15.5 Z"/></g>
<g><path style="opacity:1" fill="#dd0f09" d="M 34.5,15.5 C 39.4334,16.2978 43.4334,18.6312 46.5,22.5C 44.1492,25.2387 41.8159,27.9054 39.5,30.5C 36.6575,25.4812 33.3241,20.8145 29.5,16.5C 30.9187,15.5489 32.5853,15.2155 34.5,15.5 Z"/></g>
<g><path style="opacity:1" fill="#e00d08" d="M 24.5,15.5 C 30.0224,20.189 34.3557,25.8556 37.5,32.5C 37.4894,34.0174 36.8228,35.1841 35.5,36C 28.5231,35.6031 21.5231,35.6031 14.5,36C 10.391,39.0385 6.2243,39.2051 2,36.5C 0.912637,33.3861 1.74597,31.0528 4.5,29.5C 7.22545,30.713 9.55878,32.5464 11.5,35C 12.3317,35.6877 12.9984,35.521 13.5,34.5C 11.4108,31.4046 8.74414,29.0713 5.5,27.5C 6.56222,24.622 8.56222,22.622 11.5,21.5C 14.3683,24.6879 17.3683,27.8546 20.5,31C 21.635,31.7494 22.635,31.5827 23.5,30.5C 19.8134,27.0533 16.1467,23.7199 12.5,20.5C 15.6716,17.1671 19.6716,15.5005 24.5,15.5 Z"/></g>
<g><path style="opacity:1" fill="#de0d07" d="M 51.5,26.5 C 53.2287,29.9648 54.3953,33.6315 55,37.5C 55.6667,38.1667 56.3333,38.8333 57,39.5C 57.2557,35.7537 56.7557,32.087 55.5,28.5C 61.8208,31.9044 63.1541,36.9044 59.5,43.5C 51.6604,44.7636 44.6604,42.7636 38.5,37.5C 39.1882,36.1451 40.1882,35.1451 41.5,34.5C 43.4386,36.9891 43.7719,36.6558 42.5,33.5C 43.8823,30.6057 45.8823,28.1057 48.5,26C 49.5768,25.5304 50.5768,25.6971 51.5,26.5 Z"/></g>
<g><path style="opacity:1" fill="#f8cbca" d="M 5.5,27.5 C 8.74414,29.0713 11.4108,31.4046 13.5,34.5C 12.9984,35.521 12.3317,35.6877 11.5,35C 9.55878,32.5464 7.22545,30.713 4.5,29.5C 4.32842,28.5084 4.66175,27.8417 5.5,27.5 Z"/></g>
<g><path style="opacity:1" fill="#fde7e7" d="M 12.5,20.5 C 16.1467,23.7199 19.8134,27.0533 23.5,30.5C 22.635,31.5827 21.635,31.7494 20.5,31C 17.3683,27.8546 14.3683,24.6879 11.5,21.5C 11.5,20.8333 11.8333,20.5 12.5,20.5 Z"/></g>
<g><path style="opacity:1" fill="#fce4e3" d="M 24.5,15.5 C 25.5,15.5 26.5,15.5 27.5,15.5C 28.1667,15.8333 28.8333,16.1667 29.5,16.5C 33.3241,20.8145 36.6575,25.4812 39.5,30.5C 39.1667,31.5 38.5,32.1667 37.5,32.5C 34.3557,25.8556 30.0224,20.189 24.5,15.5 Z"/></g>
<g><path style="opacity:1" fill="#fbd7d6" d="M 42.5,33.5 C 43.7719,36.6558 43.4386,36.9891 41.5,34.5C 41.5,33.8333 41.8333,33.5 42.5,33.5 Z"/></g>
<g><path style="opacity:1" fill="#fce0e0" d="M 51.5,26.5 C 52.8333,27.1667 54.1667,27.8333 55.5,28.5C 56.7557,32.087 57.2557,35.7537 57,39.5C 56.3333,38.8333 55.6667,38.1667 55,37.5C 54.3953,33.6315 53.2287,29.9648 51.5,26.5 Z"/></g>
<g><path style="opacity:1" fill="#f2f2f2" d="M 30.5,42.5 C 25.9457,44.0465 21.279,45.0465 16.5,45.5C 12.7757,46.2269 10.1091,44.8936 8.5,41.5C 16.2848,35.8101 24.6182,34.9768 33.5,39C 32.2899,40.0391 31.2899,41.2058 30.5,42.5 Z"/></g>
<g><path style="opacity:1" fill="#e8e8e8" d="M 31.5,45.5 C 31.8333,44.8333 32.1667,44.1667 32.5,43.5C 33.5198,41.648 35.0198,40.3147 37,39.5C 42.7872,41.978 48.6206,44.3113 54.5,46.5C 51.998,47.7922 49.3314,48.4588 46.5,48.5C 41.3869,47.4119 36.3869,46.4119 31.5,45.5 Z"/></g>
<g><path style="opacity:1" fill="#969696" d="M 30.5,42.5 C 30.8417,43.3382 31.5084,43.6716 32.5,43.5C 32.1667,44.1667 31.8333,44.8333 31.5,45.5C 26.5,45.5 21.5,45.5 16.5,45.5C 21.279,45.0465 25.9457,44.0465 30.5,42.5 Z"/></g>
</svg>
